<svg width="60" height="60" viewBox="0 0 60 60" fill="none" xmlns="http://www.w3.org/2000/svg">
<g clip-path="url(#clip0_49_814)">
<path d="M31.875 37.5C30.84 37.5 30 35.82 30 33.75C30 31.68 30.84 30 31.875 30C32.91 30 33.75 31.68 33.75 33.75C33.75 35.82 32.91 37.5 31.875 37.5Z" fill="#F7F7F7"/>
<path d="M40.605 0.457522C40.8078 0.633784 40.9703 0.851575 41.0816 1.09614C41.1929 1.3407 41.2503 1.60633 41.25 1.87502V3.75002H43.125C44.6168 3.75002 46.0476 4.34265 47.1025 5.39755C48.1574 6.45244 48.75 7.88318 48.75 9.37502V56.25H54.375C54.8723 56.25 55.3492 56.4476 55.7008 56.7992C56.0525 57.1508 56.25 57.6277 56.25 58.125C56.25 58.6223 56.0525 59.0992 55.7008 59.4508C55.3492 59.8025 54.8723 60 54.375 60H5.625C5.12772 60 4.65081 59.8025 4.29917 59.4508C3.94754 59.0992 3.75 58.6223 3.75 58.125C3.75 57.6277 3.94754 57.1508 4.29917 56.7992C4.65081 56.4476 5.12772 56.25 5.625 56.25H11.25V5.62502C11.2501 5.17327 11.4132 4.73672 11.7095 4.39568C12.0058 4.05463 12.4152 3.83202 12.8625 3.76877L39.1125 0.018772C39.3782 -0.0191707 39.6489 0.00036436 39.9064 0.0760568C40.1639 0.151749 40.4021 0.281835 40.605 0.457522ZM43.125 7.50002H41.25V56.25H45V9.37502C45 8.87774 44.8025 8.40083 44.4508 8.0492C44.0992 7.69757 43.6223 7.50002 43.125 7.50002ZM15 7.25252V56.25H37.5V4.03877L15 7.25252Z" fill="#F7F7F7"/>
</g>
<defs>
<clipPath id="clip0_49_814">
<rect width="60" height="60" fill="white"/>
</clipPath>
</defs>
</svg>
