<svg width="203" height="79" viewBox="0 0 203 79" fill="none" xmlns="http://www.w3.org/2000/svg">
<g filter="url(#filter0_d_1797_89007)">
<rect x="1" y="0.281494" width="201" height="76" rx="15" fill="#50D6F3" shape-rendering="crispEdges"/>
<g clip-path="url(#clip0_1797_89007)">
<path d="M44.875 45.7815C43.84 45.7815 43 44.1015 43 42.0315C43 39.9615 43.84 38.2815 44.875 38.2815C45.91 38.2815 46.75 39.9615 46.75 42.0315C46.75 44.1015 45.91 45.7815 44.875 45.7815Z" fill="white" fill-opacity="0.9"/>
<path d="M53.605 8.73902C53.8078 8.91528 53.9703 9.13307 54.0816 9.37763C54.1929 9.6222 54.2503 9.88782 54.25 10.1565V12.0315H56.125C57.6168 12.0315 59.0476 12.6241 60.1025 13.679C61.1574 14.7339 61.75 16.1647 61.75 17.6565V64.5315H67.375C67.8723 64.5315 68.3492 64.7291 68.7008 65.0807C69.0525 65.4323 69.25 65.9092 69.25 66.4065C69.25 66.9038 69.0525 67.3807 68.7008 67.7323C68.3492 68.084 67.8723 68.2815 67.375 68.2815H18.625C18.1277 68.2815 17.6508 68.084 17.2992 67.7323C16.9475 67.3807 16.75 66.9038 16.75 66.4065C16.75 65.9092 16.9475 65.4323 17.2992 65.0807C17.6508 64.7291 18.1277 64.5315 18.625 64.5315H24.25V13.9065C24.2501 13.4548 24.4132 13.0182 24.7095 12.6772C25.0058 12.3361 25.4152 12.1135 25.8625 12.0503L52.1125 8.30027C52.3782 8.26232 52.6489 8.28186 52.9064 8.35755C53.1639 8.43324 53.4021 8.56333 53.605 8.73902ZM56.125 15.7815H54.25V64.5315H58V17.6565C58 17.1592 57.8025 16.6823 57.4508 16.3307C57.0992 15.9791 56.6223 15.7815 56.125 15.7815ZM28 15.534V64.5315H50.5V12.3203L28 15.534Z" fill="white" fill-opacity="0.9"/>
</g>
<path d="M83.972 36.8215V46.7335H81.9V38.7815H78.344V36.8215H83.972ZM83.972 45.8095C85.316 47.9095 87.864 48.8335 91.224 48.9735C94.304 49.0855 100.632 49.0015 103.964 48.7775C103.712 49.2815 103.376 50.2895 103.264 50.9335C100.184 51.0455 94.332 51.1015 91.224 50.9895C87.472 50.8495 84.868 49.8695 83.048 47.6575C81.788 48.8615 80.472 50.0655 79.044 51.2975L77.924 49.1695C79.184 48.2455 80.724 47.0135 82.068 45.8095H83.972ZM78.596 27.6655L80.136 26.4335C81.9 27.6935 83.888 29.5975 84.784 30.9695L83.104 32.3135C82.292 30.9415 80.332 28.9815 78.596 27.6655ZM88.732 27.1895H102.844V29.1495H88.732V27.1895ZM88.928 33.0415H100.38V34.9455H88.928V33.0415ZM87.724 27.1895H89.768V33.6575C89.768 37.5775 89.32 43.0935 86.436 46.8455C86.1 46.4535 85.204 45.8655 84.728 45.6415C87.444 42.1415 87.724 37.2695 87.724 33.6575V27.1895ZM99.82 33.0415H100.212L100.604 32.9575L101.92 33.4335C100.128 40.9095 95.368 45.3615 89.824 47.5175C89.572 47.0135 89.012 46.1735 88.592 45.7535C93.688 44.0455 98.252 39.7335 99.82 33.4055V33.0415ZM92.176 34.3015C93.996 40.0415 97.888 44.2695 103.852 45.9495C103.376 46.3695 102.788 47.1815 102.48 47.7695C96.32 45.7255 92.372 41.2175 90.328 34.7775L92.176 34.3015ZM115.472 35.2815V41.7215H122.276V35.2815H115.472ZM113.484 33.4055H124.376V43.5695H113.484V33.4055ZM107.296 26.9095H130.704V51.4935H128.464V29.0375H109.452V51.4935H107.296V26.9095ZM108.5 48.0215H129.752V50.0095H108.5V48.0215ZM137.284 31.0815H139.328V37.3535C139.328 41.4695 138.824 47.2095 135.576 51.0175C135.212 50.6535 134.316 50.0655 133.812 49.8415C136.92 46.2015 137.284 41.1055 137.284 37.3255V31.0815ZM138.32 31.0815H157.136V37.1295H138.32V35.5055H155.064V32.7055H138.32V31.0815ZM135.268 27.2735H158.788V29.1775H135.268V27.2735ZM138.208 39.5655H159.488V41.3015H138.208V39.5655ZM145.684 43.5415H155.204V45.2215H145.684V43.5415ZM146.944 36.9055H149.016V40.4335H146.944V36.9055ZM154.672 43.5415H156.772C156.772 43.5415 156.744 44.1015 156.688 44.3815C156.324 48.5255 155.932 50.2615 155.204 50.9615C154.728 51.4375 154.14 51.6055 153.356 51.6335C152.6 51.6895 151.088 51.6895 149.548 51.5775C149.492 51.0455 149.296 50.3175 148.988 49.8135C150.472 49.9535 151.956 49.9815 152.488 49.9815C152.992 49.9815 153.272 49.9255 153.524 49.7015C154 49.2535 154.336 47.7135 154.672 43.8215V43.5415ZM145.264 40.4335H147.336C146.804 45.8375 145.292 49.6455 138.824 51.6055C138.628 51.1295 138.068 50.3735 137.648 49.9815C143.584 48.3575 144.788 45.0255 145.264 40.4335ZM170.716 42.9255H179.2V44.5495H170.716V42.9255ZM170.632 38.6975H180.18V48.9175H170.632V47.2935H178.192V40.3495H170.632V38.6975ZM169.708 38.6975H171.64V50.3455H169.708V38.6975ZM164.556 30.9415H172.34V32.4815H164.556V30.9415ZM177.464 30.9415H185.388V32.4815H177.464V30.9415ZM184.52 26.9655H186.62V48.7495C186.62 50.0935 186.312 50.7935 185.416 51.1575C184.52 51.4935 183.008 51.5215 180.656 51.5215C180.572 50.9335 180.236 49.9535 179.928 49.3655C181.636 49.4495 183.344 49.4215 183.848 49.3935C184.352 49.3935 184.52 49.2255 184.52 48.7495V26.9655ZM164.724 26.9655H173.684V36.5975H164.724V34.9735H171.696V28.5895H164.724V26.9655ZM185.556 26.9655V28.5895H178.22V35.0295H185.556V36.6255H176.204V26.9655H185.556ZM163.52 26.9655H165.592V51.5495H163.52V26.9655Z" fill="white" fill-opacity="0.9"/>
</g>
<defs>
<filter id="filter0_d_1797_89007" x="0" y="0.281494" width="203" height="78" filterUnits="userSpaceOnUse" color-interpolation-filters="sRGB">
<feFlood flood-opacity="0" result="BackgroundImageFix"/>
<feColorMatrix in="SourceAlpha" type="matrix" values="0 0 0 0 0 0 0 0 0 0 0 0 0 0 0 0 0 0 127 0" result="hardAlpha"/>
<feOffset dy="1"/>
<feGaussianBlur stdDeviation="0.5"/>
<feComposite in2="hardAlpha" operator="out"/>
<feColorMatrix type="matrix" values="0 0 0 0 1 0 0 0 0 1 0 0 0 0 1 0 0 0 0.25 0"/>
<feBlend mode="normal" in2="BackgroundImageFix" result="effect1_dropShadow_1797_89007"/>
<feBlend mode="normal" in="SourceGraphic" in2="effect1_dropShadow_1797_89007" result="shape"/>
</filter>
<clipPath id="clip0_1797_89007">
<rect width="60" height="60" fill="white" transform="translate(13 8.28149)"/>
</clipPath>
</defs>
</svg>
