<svg width="203" height="79" viewBox="0 0 203 79" fill="none" xmlns="http://www.w3.org/2000/svg">
<g filter="url(#filter0_d_1795_89007)">
<rect x="1" y="0.281494" width="201" height="76" rx="15" fill="#50D6F3" shape-rendering="crispEdges"/>
<g clip-path="url(#clip0_1795_89007)">
<path d="M44.875 45.7815C43.84 45.7815 43 44.1015 43 42.0315C43 39.9615 43.84 38.2815 44.875 38.2815C45.91 38.2815 46.75 39.9615 46.75 42.0315C46.75 44.1015 45.91 45.7815 44.875 45.7815Z" fill="white" fill-opacity="0.9"/>
<path d="M53.605 8.73902C53.8078 8.91528 53.9703 9.13307 54.0816 9.37763C54.1929 9.6222 54.2503 9.88782 54.25 10.1565V12.0315H56.125C57.6168 12.0315 59.0476 12.6241 60.1025 13.679C61.1574 14.7339 61.75 16.1647 61.75 17.6565V64.5315H67.375C67.8723 64.5315 68.3492 64.7291 68.7008 65.0807C69.0525 65.4323 69.25 65.9092 69.25 66.4065C69.25 66.9038 69.0525 67.3807 68.7008 67.7323C68.3492 68.084 67.8723 68.2815 67.375 68.2815H18.625C18.1277 68.2815 17.6508 68.084 17.2992 67.7323C16.9475 67.3807 16.75 66.9038 16.75 66.4065C16.75 65.9092 16.9475 65.4323 17.2992 65.0807C17.6508 64.7291 18.1277 64.5315 18.625 64.5315H24.25V13.9065C24.2501 13.4548 24.4132 13.0182 24.7095 12.6772C25.0058 12.3361 25.4152 12.1135 25.8625 12.0503L52.1125 8.30027C52.3782 8.26232 52.6489 8.28186 52.9064 8.35755C53.1639 8.43324 53.4021 8.56333 53.605 8.73902ZM56.125 15.7815H54.25V64.5315H58V17.6565C58 17.1592 57.8025 16.6823 57.4508 16.3307C57.0992 15.9791 56.6223 15.7815 56.125 15.7815ZM28 15.534V64.5315H50.5V12.3203L28 15.534Z" fill="white" fill-opacity="0.9"/>
</g>
<path d="M87.472 35.2815V41.7215H94.276V35.2815H87.472ZM85.484 33.4055H96.376V43.5695H85.484V33.4055ZM79.296 26.9095H102.704V51.4935H100.464V29.0375H81.452V51.4935H79.296V26.9095ZM80.5 48.0215H101.752V50.0095H80.5V48.0215ZM106.4 27.6095H120.764V29.5135H106.4V27.6095ZM107.24 40.9375H119.952V42.8415H107.24V40.9375ZM112.588 37.6055H114.66V48.5815L112.588 48.8895V37.6055ZM106.092 48.5815C109.732 48.1895 115.416 47.4335 120.82 46.7055L120.876 48.6655C115.668 49.3935 110.152 50.1775 106.428 50.6815L106.092 48.5815ZM106.344 35.2255C109.536 35.1135 114.464 34.8895 119.28 34.6375L119.224 36.4855C114.632 36.7655 109.844 37.0175 106.512 37.2135L106.344 35.2255ZM115.276 31.8095L116.844 30.9415C118.552 32.9015 120.512 35.5335 121.324 37.2135L119.644 38.2215C118.832 36.5135 116.956 33.7975 115.276 31.8095ZM111.244 28.6175L113.512 29.0655C112.532 31.5295 111.328 34.6095 110.292 36.5415L108.444 36.0935C109.424 34.1055 110.628 30.8295 111.244 28.6175ZM121.996 29.1495H124.012V44.6615H121.996V29.1495ZM128.604 26.5735H130.676V48.6935C130.676 50.1495 130.34 50.7935 129.416 51.1295C128.492 51.4935 126.784 51.5495 124.516 51.5495C124.404 50.9615 124.096 49.9815 123.788 49.3375C125.664 49.4215 127.4 49.3935 127.96 49.3935C128.464 49.3655 128.604 49.2255 128.604 48.7215V26.5735ZM134.736 33.8255H159.348V35.9535H134.736V33.8255ZM148.372 34.6655C150.192 41.4415 154 47.0975 159.824 49.5055C159.292 49.9815 158.592 50.8775 158.228 51.4655C152.18 48.6095 148.372 42.7015 146.272 35.1695L148.372 34.6655ZM145.908 25.7895H148.176C148.064 33.1255 148.008 45.8935 135.772 51.4935C135.436 50.9335 134.764 50.1775 134.176 49.7575C146.076 44.5775 145.852 32.5095 145.908 25.7895ZM166.74 31.1655H175.868V32.6215H166.74V31.1655ZM168.7 34.1895H173.824V35.3935H168.7V34.1895ZM168.7 37.0455H173.824V38.2775H168.7V37.0455ZM166.544 43.0935H172.032V44.4375H166.544V43.0935ZM166.628 45.9775H171.948V47.3215H166.628V45.9775ZM176.064 32.0335H187.264V33.5735H176.064V32.0335ZM175.588 41.8895H187.796V43.4015H175.588V41.8895ZM180.6 30.3535H182.392V36.0375H180.6V30.3535ZM168.056 31.8935H169.652V40.7695H168.056V31.8935ZM168.56 43.6535H169.988V49.6735H168.56V43.6535ZM172.816 31.8935H174.468V51.5775H172.816V31.8935ZM183.792 36.4855V39.2015H185.64V36.4855H183.792ZM180.684 36.4855V39.2015H182.504V36.4855H180.684ZM177.716 36.4855V39.2015H179.424V36.4855H177.716ZM176.288 35.1415H187.068V40.5455H176.288V35.1415ZM166.32 40.3215C168.336 40.2375 171.108 40.0415 173.992 39.8455L173.964 41.2735C171.276 41.5255 168.616 41.7495 166.488 41.8895L166.32 40.3215ZM165.9 49.3935C167.552 49.2535 169.736 49.0015 172.088 48.7495L172.116 50.0935C169.96 50.3735 167.888 50.6535 166.096 50.8495L165.9 49.3935ZM178.892 45.5015H180.488V49.3935C180.488 49.8695 180.572 49.9255 181.104 49.9255C181.328 49.9255 182.532 49.9255 182.868 49.9255C183.372 49.9255 183.456 49.7575 183.512 48.0495C183.848 48.3015 184.464 48.5255 184.94 48.6375C184.772 50.8495 184.324 51.3815 183.092 51.3815C182.756 51.3815 181.216 51.3815 180.908 51.3815C179.284 51.3815 178.892 51.0175 178.892 49.3935V45.5015ZM176.4 45.6695L177.8 46.0895C177.632 47.6855 177.268 49.5055 176.484 50.5975L175.112 49.8975C175.812 48.8895 176.232 47.1815 176.4 45.6695ZM184.324 45.9775L185.78 45.4455C186.816 46.8455 187.768 48.6935 188.048 49.9815L186.536 50.5695C186.284 49.3095 185.36 47.4055 184.324 45.9775ZM179.368 44.0735L180.376 43.0655C181.636 43.6535 183.092 44.5775 183.82 45.3055L182.728 46.4255C182.056 45.6975 180.6 44.6895 179.368 44.0735ZM174.72 25.7895H176.876V28.9255H174.72V25.7895ZM165.312 27.8335H187.544V29.5415H165.312V27.8335ZM163.94 27.8335H165.844V36.6535C165.844 40.9935 165.536 47.3495 163.52 51.6055C163.184 51.2415 162.344 50.6535 161.896 50.4575C163.8 46.4255 163.94 40.7415 163.94 36.6815V27.8335Z" fill="white" fill-opacity="0.9"/>
</g>
<defs>
<filter id="filter0_d_1795_89007" x="0" y="0.281494" width="203" height="78" filterUnits="userSpaceOnUse" color-interpolation-filters="sRGB">
<feFlood flood-opacity="0" result="BackgroundImageFix"/>
<feColorMatrix in="SourceAlpha" type="matrix" values="0 0 0 0 0 0 0 0 0 0 0 0 0 0 0 0 0 0 127 0" result="hardAlpha"/>
<feOffset dy="1"/>
<feGaussianBlur stdDeviation="0.5"/>
<feComposite in2="hardAlpha" operator="out"/>
<feColorMatrix type="matrix" values="0 0 0 0 1 0 0 0 0 1 0 0 0 0 1 0 0 0 0.25 0"/>
<feBlend mode="normal" in2="BackgroundImageFix" result="effect1_dropShadow_1795_89007"/>
<feBlend mode="normal" in="SourceGraphic" in2="effect1_dropShadow_1795_89007" result="shape"/>
</filter>
<clipPath id="clip0_1795_89007">
<rect width="60" height="60" fill="white" transform="translate(13 8.28149)"/>
</clipPath>
</defs>
</svg>
