<svg width="60" height="60" viewBox="0 0 60 60" fill="none" xmlns="http://www.w3.org/2000/svg">
<mask id="path-1-inside-1_37_687" fill="white">
<path fill-rule="evenodd" clip-rule="evenodd" d="M36.66 19.6389C51.8503 17.0004 53.4725 0.277159 40.6071 8.98006C37.4514 11.1147 36.4969 9.68216 35.393 8.02548C33.9329 5.83425 32.2115 3.25093 24.7903 8.01106C19.5557 0.741414 11.5064 6.19344 13.6518 11.4636C15.6542 16.3821 19.7429 18.5856 24.4646 19.4779C14.9123 21.3282 6.19615 28.4825 4.74099 39.1449C2.62467 54.6516 14.7623 55.4996 28.7754 55.4996C42.7885 55.4996 58.0388 53.743 55.1428 38.2362C53.3377 28.5707 46.0568 21.6235 36.66 19.6389Z"/>
</mask>
<path fill-rule="evenodd" clip-rule="evenodd" d="M36.66 19.6389C51.8503 17.0004 53.4725 0.277159 40.6071 8.98006C37.4514 11.1147 36.4969 9.68216 35.393 8.02548C33.9329 5.83425 32.2115 3.25093 24.7903 8.01106C19.5557 0.741414 11.5064 6.19344 13.6518 11.4636C15.6542 16.3821 19.7429 18.5856 24.4646 19.4779C14.9123 21.3282 6.19615 28.4825 4.74099 39.1449C2.62467 54.6516 14.7623 55.4996 28.7754 55.4996C42.7885 55.4996 58.0388 53.743 55.1428 38.2362C53.3377 28.5707 46.0568 21.6235 36.66 19.6389Z" fill="#EC7DD3"/>
<path d="M40.6071 8.98006L39.4865 7.32348L40.6071 8.98006ZM36.66 19.6389L36.3177 17.6684L36.2467 21.5957L36.66 19.6389ZM35.393 8.02548L33.7286 9.13449V9.13449L35.393 8.02548ZM24.7903 8.01106L23.1673 9.17974L24.2748 10.7178L25.8701 9.69452L24.7903 8.01106ZM13.6518 11.4636L11.7995 12.2177V12.2177L13.6518 11.4636ZM24.4646 19.4779L24.8449 21.4414L24.836 17.5127L24.4646 19.4779ZM4.74099 39.1449L6.72262 39.4153L4.74099 39.1449ZM55.1428 38.2362L57.1088 37.869L55.1428 38.2362ZM41.7277 10.6366C43.2315 9.61937 44.4405 9.03159 45.3641 8.73593C46.3038 8.4351 46.8202 8.47612 47.0304 8.53315C47.1668 8.57014 47.1695 8.5994 47.1883 8.64178C47.2371 8.75211 47.3141 9.06994 47.1945 9.65781C46.6986 12.0961 43.2959 16.4563 36.3177 17.6684L37.0023 21.6094C45.2144 20.1829 50.2179 14.8623 51.1143 10.4551C51.3428 9.33156 51.3295 8.11522 50.8461 7.02293C50.3326 5.8627 49.3612 5.02089 48.0777 4.6727C46.8682 4.34454 45.5193 4.48627 44.1445 4.92638C42.7536 5.37164 41.199 6.16502 39.4865 7.32348L41.7277 10.6366ZM33.7286 9.13449C33.9871 9.52239 34.3291 10.0417 34.7286 10.4955C35.141 10.9638 35.7144 11.4823 36.5088 11.7897C38.2227 12.453 39.9898 11.8122 41.7277 10.6366L39.4865 7.32348C38.0687 8.28256 37.7807 7.99287 37.9524 8.05931C37.9757 8.06833 37.9063 8.05151 37.7306 7.85201C37.5421 7.63791 37.3508 7.35691 37.0573 6.91646L33.7286 9.13449ZM25.8701 9.69452C29.4981 7.36746 31.1927 7.21635 31.9146 7.36851C32.5452 7.50144 32.9328 7.94017 33.7286 9.13449L37.0573 6.91646C36.393 5.91955 35.1899 3.97101 32.7396 3.45451C30.3804 2.95723 27.5037 3.89453 23.7105 6.3276L25.8701 9.69452ZM15.5042 10.7095C14.92 9.27448 15.6436 7.61566 17.2954 6.84907C18.7311 6.18279 21.0486 6.2374 23.1673 9.17974L26.4133 6.84238C23.2974 2.51508 18.9729 1.66087 15.6116 3.22074C12.4665 4.6803 10.2382 8.38257 11.7995 12.2177L15.5042 10.7095ZM24.836 17.5127C20.5104 16.6953 17.1614 14.7803 15.5042 10.7095L11.7995 12.2177C14.1469 17.9839 18.9753 20.476 24.0932 21.4431L24.836 17.5127ZM6.72262 39.4153C8.03757 29.7803 15.9428 23.1658 24.8449 21.4414L24.0843 17.5144C13.8818 19.4906 4.35473 27.1847 2.75936 38.8744L6.72262 39.4153ZM28.7754 53.4996C25.2776 53.4996 21.982 53.4457 19.0188 53.1357C16.0452 52.8246 13.536 52.2668 11.5686 51.3311C9.64301 50.4153 8.27042 49.157 7.44392 47.3935C6.59989 45.5925 6.22625 43.0523 6.72262 39.4153L2.75936 38.8744C2.19756 42.9908 2.54751 46.3716 3.82197 49.0909C5.11398 51.8477 7.2548 53.7089 9.85068 54.9434C12.4048 56.1581 15.4252 56.7815 18.6025 57.114C21.7901 57.4475 25.2666 57.4996 28.7754 57.4996V53.4996ZM53.1768 38.6034C53.8412 42.1606 53.4251 44.6933 52.4476 46.5399C51.4681 48.3905 49.7925 49.8019 47.4687 50.8639C42.7095 53.039 35.8051 53.4996 28.7754 53.4996V57.4996C35.7588 57.4996 43.4861 57.082 49.1314 54.502C52.0098 53.1865 54.4796 51.2512 55.9829 48.4112C57.4883 45.5671 57.8925 42.0652 57.1088 37.869L53.1768 38.6034ZM36.2467 21.5957C44.903 23.4239 51.5295 29.783 53.1768 38.6034L57.1088 37.869C55.1459 27.3585 47.2105 19.8231 37.0733 17.682L36.2467 21.5957Z" fill="#F7F7F7" mask="url(#path-1-inside-1_37_687)"/>
<path d="M38.7852 19.5881C38.7727 20.3014 38.4032 21.0109 37.1957 21.5837C35.9355 22.1816 33.8608 22.5649 30.7376 22.4999C27.6342 22.4352 25.4711 21.9075 24.1268 21.1909C22.7941 20.4806 22.3958 19.6749 22.4077 19.0001C22.4139 18.6468 22.5098 18.5309 22.6108 18.4508C22.7755 18.32 23.1239 18.171 23.8349 18.0771C25.0085 17.922 26.6976 17.9629 29.061 18.02C29.5821 18.0326 30.136 18.0459 30.7244 18.0582C33.9636 18.1257 36.1079 18.1768 37.4549 18.4762C38.1192 18.6239 38.4379 18.8031 38.589 18.9503C38.6969 19.0555 38.7919 19.2112 38.7852 19.5881Z" fill="#FEE718" stroke="#F7F7F7" stroke-width="2"/>
</svg>
