<svg width="60" height="60" viewBox="0 0 60 60" fill="none" xmlns="http://www.w3.org/2000/svg">
<path fill-rule="evenodd" clip-rule="evenodd" d="M34.5188 30.0001L52.3088 7.88027C53.8876 5.91724 52.4902 3.00012 49.9711 3.00012H9.27951C6.76038 3.00012 5.36299 5.91724 6.94176 7.88027L24.7318 30.0001L6.94176 52.1199C5.36299 54.083 6.76038 57.0001 9.27951 57.0001H49.9711C52.4902 57.0001 53.8876 54.083 52.3088 52.1199L34.5188 30.0001Z" fill="#F7F7F7"/>
<path d="M34.5188 30.0001L33.7396 29.3734C33.4452 29.7394 33.4452 30.2608 33.7396 30.6268L34.5188 30.0001ZM52.3088 7.88027L51.5295 7.25356L51.5295 7.25356L52.3088 7.88027ZM6.94176 7.88027L7.72101 7.25355L7.72101 7.25355L6.94176 7.88027ZM24.7318 30.0001L25.511 30.6268C25.8053 30.2608 25.8053 29.7394 25.511 29.3734L24.7318 30.0001ZM6.94176 52.1199L6.16252 51.4932L6.16252 51.4932L6.94176 52.1199ZM52.3088 52.1199L53.088 51.4932L53.088 51.4932L52.3088 52.1199ZM35.2981 30.6268L53.088 8.50699L51.5295 7.25356L33.7396 29.3734L35.2981 30.6268ZM53.088 8.50699C55.1931 5.88962 53.3299 2.00012 49.9711 2.00012V4.00012C51.6505 4.00012 52.5821 5.94487 51.5295 7.25356L53.088 8.50699ZM49.9711 2.00012H9.27951V4.00012H49.9711V2.00012ZM9.27951 2.00012C5.92067 2.00012 4.05748 5.88961 6.16252 8.50698L7.72101 7.25355C6.66849 5.94487 7.60009 4.00012 9.27951 4.00012V2.00012ZM6.16252 8.50698L23.9525 30.6268L25.511 29.3734L7.72101 7.25355L6.16252 8.50698ZM7.72101 52.7467L25.511 30.6268L23.9525 29.3734L6.16252 51.4932L7.72101 52.7467ZM9.27951 56.0001C7.60009 56.0001 6.66849 54.0553 7.72101 52.7467L6.16252 51.4932C4.05748 54.1106 5.92067 58.0001 9.27951 58.0001V56.0001ZM49.9711 56.0001H9.27951V58.0001H49.9711V56.0001ZM51.5295 52.7466C52.5821 54.0553 51.6505 56.0001 49.9711 56.0001V58.0001C53.3299 58.0001 55.1931 54.1106 53.088 51.4932L51.5295 52.7466ZM33.7396 30.6268L51.5295 52.7466L53.088 51.4932L35.2981 29.3734L33.7396 30.6268Z" fill="#AE0000"/>
<path d="M28.1333 29.85C28.9285 30.7408 30.322 30.7408 31.1172 29.85L37.8542 22.3038C39.0048 21.015 38.09 18.9719 36.3622 18.9719H22.8883C21.1606 18.9719 20.2457 21.015 21.3964 22.3038L28.1333 29.85Z" fill="#AE0000"/>
<path d="M29.6253 42.9294C37.3628 42.9294 45.9722 49.542 49.6411 52.6984C50.3206 53.283 49.8993 54.3379 49.0029 54.3379H10.2476C9.35126 54.3379 8.92992 53.283 9.60939 52.6984C13.2783 49.542 21.8877 42.9295 29.6253 42.9294Z" fill="#AE0000"/>
<ellipse cx="29.6253" cy="33.0423" rx="1.61709" ry="1.52113" fill="#AE0000"/>
<ellipse cx="29.6253" cy="37.6058" rx="1.61709" ry="1.52113" fill="#AE0000"/>
</svg>
