<svg width="203" height="79" viewBox="0 0 203 79" fill="none" xmlns="http://www.w3.org/2000/svg">
<g filter="url(#filter0_d_1791_89007)">
<rect x="1" y="0.281494" width="201" height="76" rx="15" fill="#50D6F3" shape-rendering="crispEdges"/>
<g clip-path="url(#clip0_1791_89007)">
<path d="M44.875 45.7815C43.84 45.7815 43 44.1015 43 42.0315C43 39.9615 43.84 38.2815 44.875 38.2815C45.91 38.2815 46.75 39.9615 46.75 42.0315C46.75 44.1015 45.91 45.7815 44.875 45.7815Z" fill="#8962F8"/>
<path d="M53.605 8.73902C53.8078 8.91528 53.9703 9.13307 54.0816 9.37763C54.1929 9.6222 54.2503 9.88782 54.25 10.1565V12.0315H56.125C57.6168 12.0315 59.0476 12.6241 60.1025 13.679C61.1574 14.7339 61.75 16.1647 61.75 17.6565V64.5315H67.375C67.8723 64.5315 68.3492 64.7291 68.7008 65.0807C69.0525 65.4323 69.25 65.9092 69.25 66.4065C69.25 66.9038 69.0525 67.3807 68.7008 67.7323C68.3492 68.084 67.8723 68.2815 67.375 68.2815H18.625C18.1277 68.2815 17.6508 68.084 17.2992 67.7323C16.9475 67.3807 16.75 66.9038 16.75 66.4065C16.75 65.9092 16.9475 65.4323 17.2992 65.0807C17.6508 64.7291 18.1277 64.5315 18.625 64.5315H24.25V13.9065C24.2501 13.4548 24.4132 13.0182 24.7095 12.6772C25.0058 12.3361 25.4152 12.1135 25.8625 12.0503L52.1125 8.30027C52.3782 8.26232 52.6489 8.28186 52.9064 8.35755C53.1639 8.43324 53.4021 8.56333 53.605 8.73902ZM56.125 15.7815H54.25V64.5315H58V17.6565C58 17.1592 57.8025 16.6823 57.4508 16.3307C57.0992 15.9791 56.6223 15.7815 56.125 15.7815ZM28 15.534V64.5315H50.5V12.3203L28 15.534Z" fill="#8962F8"/>
</g>
<path d="M78.176 28.1975H91.756V29.9055H78.176V28.1975ZM83.916 25.7615H85.96V29.0095H83.916V25.7615ZM81.2 46.1175C82.964 46.0335 85.288 45.8935 87.808 45.7255L87.836 47.1535C85.484 47.3215 83.244 47.4895 81.368 47.6295L81.2 46.1175ZM89.348 40.7415H91.14V49.5055C91.14 50.4295 90.972 50.9335 90.272 51.2135C89.6 51.4935 88.536 51.4935 86.828 51.4935C86.744 51.0455 86.492 50.3175 86.24 49.8695C87.472 49.9255 88.592 49.8975 88.9 49.8975C89.236 49.8695 89.348 49.7855 89.348 49.4775V40.7415ZM85.876 43.8215L87.108 43.4575C87.892 44.9415 88.676 46.8735 88.9 48.0775L87.584 48.4975C87.36 47.2655 86.66 45.3055 85.876 43.8215ZM81.816 32.5095L82.712 31.5575C84.7 32.5935 87.08 34.2175 88.228 35.3655L87.304 36.5135C86.156 35.3095 83.804 33.6295 81.816 32.5095ZM84.028 38.1375L85.848 38.4455C85.288 41.2735 84.532 44.9415 83.888 47.0695L82.432 46.7895C83.048 44.5775 83.72 40.7415 84.028 38.1375ZM78.764 40.7415H90.104V42.3375H80.528V51.5495H78.764V40.7415ZM79.52 31.0815H81.088V37.2975H88.76V31.0815H90.384V38.8375H79.52V31.0815ZM86.156 30.6335L87.64 31.0255C86.548 33.4615 84.644 35.7015 82.712 37.1575C82.488 36.9055 81.872 36.4295 81.508 36.2055C83.44 34.8615 85.204 32.8735 86.156 30.6335ZM93.828 36.7935H103.376V38.6135H93.828V36.7935ZM93.828 42.4215H103.376V44.2695H93.828V42.4215ZM93.884 48.1335H103.936V50.0935H93.884V48.1335ZM94.864 25.7895L96.768 26.2095C95.592 30.5215 93.8 34.8615 91.784 37.6895C91.448 37.3815 90.664 36.7375 90.188 36.4015C92.204 33.7975 93.856 29.7655 94.864 25.7895ZM99.736 26.0695L101.752 26.5455C101.052 28.5055 100.24 30.8015 99.512 32.2575L97.86 31.8095C98.532 30.2695 99.372 27.7775 99.736 26.0695ZM94.92 31.1095H103.628V33.0135H94.92V51.5775H92.988V32.8455L94.612 31.1095H94.92ZM98.196 31.9775H100.016V49.1415H98.196V31.9775ZM112.028 38.1655H125.916V39.9015H112.028V38.1655ZM111.496 42.9535H126.504V44.7455H111.496V42.9535ZM120.82 38.7255H122.724V51.0175H120.82V38.7255ZM115.08 38.8095H116.9V43.9055C116.9 45.6135 116.228 49.2815 113.064 51.4095C112.784 51.0175 112.14 50.4295 111.664 50.1495C114.492 48.4135 115.08 45.4455 115.08 43.9055V38.8095ZM108.556 30.8575H116.424V32.3695H108.556V30.8575ZM121.464 30.8575H129.388V32.3695H121.464V30.8575ZM128.576 26.9655H130.648V48.8055C130.648 50.0655 130.368 50.7375 129.528 51.1015C128.688 51.4655 127.288 51.4935 125.16 51.4935C125.076 50.9335 124.796 49.9535 124.488 49.3655C126.028 49.4215 127.54 49.4215 127.988 49.3935C128.436 49.3935 128.576 49.2255 128.576 48.8055V26.9655ZM108.724 26.9655H117.712V36.4015H108.724V34.8055H115.724V28.5895H108.724V26.9655ZM129.584 26.9655V28.5895H122.192V34.8335H129.584V36.4295H120.176V26.9655H129.584ZM107.464 26.9655H109.536V51.5495H107.464V26.9655ZM139.468 36.8215V46.7335H137.48V38.7815H134.232V36.8215H139.468ZM139.468 45.8935C140.84 47.9935 143.36 48.9455 146.692 49.0855C149.912 49.2255 156.576 49.1415 160.048 48.9175C159.796 49.3655 159.488 50.3175 159.376 50.9055C156.156 51.0455 149.968 51.1015 146.72 50.9895C142.996 50.8495 140.42 49.8415 138.628 47.6295C137.48 48.8335 136.304 50.0375 135.016 51.2975L133.924 49.3095C135.072 48.4135 136.472 47.1255 137.704 45.8935H139.468ZM134.316 27.4695L135.968 26.4335C137.536 27.8615 139.216 29.8495 139.916 31.2775L138.152 32.3975C137.48 30.9975 135.856 28.9255 134.316 27.4695ZM140.644 29.5975H150.248V31.3895H140.644V29.5975ZM144.228 34.3295H148.484V36.1215H144.228V34.3295ZM144.48 25.7895H146.44V30.6335H144.48V25.7895ZM147.728 34.3295H149.576C149.576 34.3295 149.548 34.9455 149.548 35.1975C149.352 43.2335 149.156 45.9215 148.54 46.7615C148.148 47.3215 147.728 47.5175 147.056 47.5735C146.524 47.6575 145.628 47.6295 144.76 47.6015C144.704 47.0695 144.536 46.3135 144.256 45.8655C145.124 45.9495 145.88 45.9495 146.216 45.9495C146.58 45.9495 146.776 45.8935 146.944 45.6135C147.336 45.0255 147.56 42.3935 147.728 34.7215V34.3295ZM151.536 28.8135H159.6V30.6335H151.536V28.8135ZM150.304 39.0335H159.74V40.7695H150.304V39.0335ZM151.256 33.0695H157.948V34.7215H151.256V33.0695ZM152.32 25.6775L154.14 26.0695C153.44 29.0095 152.208 31.8375 150.696 33.6855C150.388 33.3775 149.632 32.7895 149.184 32.5375C150.668 30.8295 151.732 28.3095 152.32 25.6775ZM154.112 36.6815H155.932V45.5575C155.932 46.4815 155.764 47.0135 155.064 47.3215C154.392 47.6295 153.328 47.6575 151.76 47.6575C151.676 47.1255 151.396 46.3975 151.116 45.8655C152.292 45.8935 153.356 45.8935 153.692 45.8935C154.028 45.8935 154.112 45.8095 154.112 45.5295V36.6815ZM157.388 33.0695H157.808L158.172 32.9575L159.348 33.8255C158.34 35.4215 156.8 37.1855 155.512 38.3055C155.232 37.9695 154.728 37.4375 154.42 37.2135C155.512 36.2335 156.772 34.6095 157.388 33.4335V33.0695ZM143.276 30.4095H145.04V35.5895C145.04 39.3135 144.592 44.0735 141.652 47.4895C141.344 47.1255 140.728 46.5375 140.308 46.2855C142.94 43.1215 143.276 38.8375 143.276 35.5615V30.4095ZM164.304 30.4655H176.792V31.9495H164.304V30.4655ZM169.876 27.4975H177.268V28.9815H169.876V27.4975ZM165.816 38.7535H177.576V40.1815H165.816V38.7535ZM168.896 25.7615H170.856V31.1375H168.896V25.7615ZM163.492 30.4655H165.284V38.3055C165.284 42.0295 165.004 47.5175 163.24 51.1575C162.932 50.7935 162.176 50.2335 161.756 50.0375C163.352 46.5935 163.492 41.8055 163.492 38.3055V30.4655ZM165.9 34.1895L174.944 33.2935L175.084 34.5535L166.068 35.4215L165.9 34.1895ZM176.232 30.4655H176.512L176.82 30.3815L178.08 30.6615C177.772 32.0615 177.352 33.6855 176.96 34.7215L175.42 34.3295C175.728 33.4055 176.036 31.9495 176.232 30.7455V30.4655ZM168.812 31.9215H170.408V35.8695C170.408 36.4015 170.576 36.4855 171.388 36.4855C171.78 36.4855 173.88 36.4855 174.384 36.4855C175 36.4855 175.14 36.3455 175.196 35.3375C175.532 35.5615 176.092 35.7295 176.54 35.8135C176.4 37.3255 175.924 37.7175 174.608 37.7175C174.216 37.7175 171.64 37.7175 171.248 37.7175C169.316 37.7175 168.812 37.3815 168.812 35.8415V31.9215ZM165.368 49.5615C168.364 49.2535 173.04 48.7215 177.548 48.1615L177.604 49.7295C173.292 50.2615 168.784 50.8495 165.648 51.2135L165.368 49.5615ZM167.916 46.1455L169.4 45.8375C169.82 46.7055 170.212 47.8535 170.324 48.5815L168.728 48.9175C168.644 48.1895 168.308 47.0135 167.916 46.1455ZM173.404 45.6975L175.168 46.0335C174.72 47.1255 174.3 48.2455 173.936 49.0295L172.424 48.7215C172.76 47.8535 173.208 46.5655 173.404 45.6975ZM168.448 42.5335V44.4935H174.72V42.5335H168.448ZM166.796 41.3575H176.456V45.6695H166.796V41.3575ZM176.904 34.1335L187.572 32.7615L187.824 34.6095L177.156 36.0095L176.904 34.1335ZM182.896 27.1055L184.436 26.2655C185.724 27.6375 187.096 29.5975 187.628 30.8855L186.032 31.8375C185.5 30.5215 184.156 28.5335 182.896 27.1055ZM185.948 36.2335L187.544 37.1015C185.808 42.8135 182.168 48.5535 177.772 51.3255C177.408 50.8495 176.82 50.2615 176.288 49.8975C180.684 47.3775 184.324 41.8055 185.948 36.2335ZM179.564 25.9015H181.552C181.748 38.3895 183.26 48.9175 185.808 49.0855C186.34 49.1135 186.732 47.5735 186.928 44.8575C187.292 45.2775 188.076 45.7815 188.44 45.9775C187.88 50.3455 186.872 51.5495 185.808 51.5215C181.328 51.3535 179.984 40.2375 179.564 25.9015Z" fill="#8962F8"/>
</g>
<defs>
<filter id="filter0_d_1791_89007" x="0" y="0.281494" width="203" height="78" filterUnits="userSpaceOnUse" color-interpolation-filters="sRGB">
<feFlood flood-opacity="0" result="BackgroundImageFix"/>
<feColorMatrix in="SourceAlpha" type="matrix" values="0 0 0 0 0 0 0 0 0 0 0 0 0 0 0 0 0 0 127 0" result="hardAlpha"/>
<feOffset dy="1"/>
<feGaussianBlur stdDeviation="0.5"/>
<feComposite in2="hardAlpha" operator="out"/>
<feColorMatrix type="matrix" values="0 0 0 0 1 0 0 0 0 1 0 0 0 0 1 0 0 0 0.25 0"/>
<feBlend mode="normal" in2="BackgroundImageFix" result="effect1_dropShadow_1791_89007"/>
<feBlend mode="normal" in="SourceGraphic" in2="effect1_dropShadow_1791_89007" result="shape"/>
</filter>
<clipPath id="clip0_1791_89007">
<rect width="60" height="60" fill="white" transform="translate(13 8.28149)"/>
</clipPath>
</defs>
</svg>
