<svg width="203" height="79" viewBox="0 0 203 79" fill="none" xmlns="http://www.w3.org/2000/svg">
<g filter="url(#filter0_d_1791_89003)">
<rect x="1" y="0.281494" width="201" height="76" rx="15" fill="#EC7DD3" shape-rendering="crispEdges"/>
<g clip-path="url(#clip0_1791_89003)">
<path d="M24.25 8.28149C21.2663 8.28149 18.4048 9.46676 16.295 11.5765C14.1853 13.6863 13 16.5478 13 19.5315L13 57.0315C13 60.0152 14.1853 62.8767 16.295 64.9865C18.4048 67.0962 21.2663 68.2815 24.25 68.2815H61.75C64.7337 68.2815 67.5952 67.0962 69.705 64.9865C71.8147 62.8767 73 60.0152 73 57.0315V19.5315C73 16.5478 71.8147 13.6863 69.705 11.5765C67.5952 9.46676 64.7337 8.28149 61.75 8.28149H24.25ZM28 28.9065C26.5082 28.9065 25.0774 28.3139 24.0225 27.259C22.9676 26.2041 22.375 24.7733 22.375 23.2815C22.375 21.7897 22.9676 20.3589 24.0225 19.304C25.0774 18.2491 26.5082 17.6565 28 17.6565C29.4918 17.6565 30.9226 18.2491 31.9775 19.304C33.0324 20.3589 33.625 21.7897 33.625 23.2815C33.625 24.7733 33.0324 26.2041 31.9775 27.259C30.9226 28.3139 29.4918 28.9065 28 28.9065ZM58 28.9065C56.5082 28.9065 55.0774 28.3139 54.0225 27.259C52.9676 26.2041 52.375 24.7733 52.375 23.2815C52.375 21.7897 52.9676 20.3589 54.0225 19.304C55.0774 18.2491 56.5082 17.6565 58 17.6565C59.4918 17.6565 60.9226 18.2491 61.9775 19.304C63.0324 20.3589 63.625 21.7897 63.625 23.2815C63.625 24.7733 63.0324 26.2041 61.9775 27.259C60.9226 28.3139 59.4918 28.9065 58 28.9065ZM63.625 53.2815C63.625 54.7733 63.0324 56.2041 61.9775 57.259C60.9226 58.3139 59.4918 58.9065 58 58.9065C56.5082 58.9065 55.0774 58.3139 54.0225 57.259C52.9676 56.2041 52.375 54.7733 52.375 53.2815C52.375 51.7896 52.9676 50.3589 54.0225 49.304C55.0774 48.2491 56.5082 47.6565 58 47.6565C59.4918 47.6565 60.9226 48.2491 61.9775 49.304C63.0324 50.3589 63.625 51.7896 63.625 53.2815ZM58 43.9065C56.5082 43.9065 55.0774 43.3139 54.0225 42.259C52.9676 41.2041 52.375 39.7733 52.375 38.2815C52.375 36.7897 52.9676 35.3589 54.0225 34.304C55.0774 33.2491 56.5082 32.6565 58 32.6565C59.4918 32.6565 60.9226 33.2491 61.9775 34.304C63.0324 35.3589 63.625 36.7897 63.625 38.2815C63.625 39.7733 63.0324 41.2041 61.9775 42.259C60.9226 43.3139 59.4918 43.9065 58 43.9065ZM33.625 53.2815C33.625 54.7733 33.0324 56.2041 31.9775 57.259C30.9226 58.3139 29.4918 58.9065 28 58.9065C26.5082 58.9065 25.0774 58.3139 24.0225 57.259C22.9676 56.2041 22.375 54.7733 22.375 53.2815C22.375 51.7896 22.9676 50.3589 24.0225 49.304C25.0774 48.2491 26.5082 47.6565 28 47.6565C29.4918 47.6565 30.9226 48.2491 31.9775 49.304C33.0324 50.3589 33.625 51.7896 33.625 53.2815ZM28 43.9065C26.5082 43.9065 25.0774 43.3139 24.0225 42.259C22.9676 41.2041 22.375 39.7733 22.375 38.2815C22.375 36.7897 22.9676 35.3589 24.0225 34.304C25.0774 33.2491 26.5082 32.6565 28 32.6565C29.4918 32.6565 30.9226 33.2491 31.9775 34.304C33.0324 35.3589 33.625 36.7897 33.625 38.2815C33.625 39.7733 33.0324 41.2041 31.9775 42.259C30.9226 43.3139 29.4918 43.9065 28 43.9065Z" fill="#F7F7F7"/>
</g>
<path d="M78.092 42.7855H103.936V44.7455H78.092V42.7855ZM79.128 27.4695H102.9V29.4295H79.128V27.4695ZM82.796 37.4655H99.26V39.3135H82.796V37.4655ZM98.448 32.1735H100.52V48.9455C100.52 50.2335 100.24 50.8775 99.288 51.2135C98.392 51.5495 96.824 51.5775 94.388 51.5775C94.276 51.0175 93.94 50.0935 93.632 49.5615C95.48 49.6175 97.272 49.5895 97.776 49.5615C98.28 49.5615 98.448 49.4215 98.448 48.9455V32.1735ZM81.424 32.1735H99.316V34.1055H83.496V51.5775H81.424V32.1735ZM89.824 28.0855H91.924V43.5135H89.824V28.0855ZM107.016 29.6815H131.18V31.7255H107.016V29.6815ZM117.824 25.7895H120.008V51.5215H117.824V25.7895ZM118.076 38.2215L119.84 38.9215C117.096 43.7095 112.252 48.0495 107.52 50.2615C107.184 49.7295 106.512 48.8895 106.036 48.4695C110.712 46.5655 115.556 42.4775 118.076 38.2215ZM119.896 38.2775C122.36 42.5615 127.148 46.5935 131.992 48.4415C131.46 48.8895 130.788 49.7295 130.424 50.3175C125.608 48.1615 120.848 43.7935 118.132 39.0055L119.896 38.2775ZM110.74 36.7655L112.14 35.4775C113.456 36.5975 115.192 38.1935 116.06 39.2015L114.632 40.6295C113.764 39.6215 112.084 37.9415 110.74 36.7655ZM111.916 32.3975L113.96 32.7615C112.98 36.8495 111.02 40.1815 108.416 42.3375C108.08 41.9735 107.268 41.3015 106.764 40.9655C109.312 39.0615 111.076 36.0095 111.916 32.3975ZM124.208 36.8215L125.608 35.5895C127.484 37.0175 130.06 39.1175 131.32 40.4055L129.836 41.8615C128.632 40.5175 126.112 38.3615 124.208 36.8215ZM125.188 32.3975L127.204 32.7335C126.476 36.2615 124.964 39.2015 122.976 41.1615C122.584 40.8255 121.688 40.2375 121.184 39.9855C123.228 38.2775 124.572 35.5335 125.188 32.3975ZM134.232 37.2135H159.852V39.5095H134.232V37.2135ZM166.516 27.2455H184.604V34.4415H166.516V32.6215H182.504V29.0655H166.516V27.2455ZM165.256 27.2455H167.328V33.9375C167.328 38.7815 166.824 45.9775 163.464 50.8215C163.128 50.4015 162.232 49.7015 161.756 49.4775C164.948 44.9135 165.256 38.4735 165.256 33.9375V27.2455ZM166.544 36.8775H185.136V38.7535H166.544V36.8775ZM170.744 40.9375H180.32V48.1895H170.744V46.4535H178.332V42.7015H170.744V40.9375ZM169.624 40.9375H171.556V49.8415H169.624V40.9375ZM184.436 36.8775H186.536C186.536 36.8775 186.536 37.5495 186.536 37.8295C186.144 46.4255 185.836 49.5335 184.968 50.5415C184.464 51.1855 183.904 51.3815 183.064 51.4655C182.252 51.5215 180.796 51.5215 179.312 51.4375C179.256 50.8495 179.032 50.0095 178.696 49.4495C180.208 49.5895 181.58 49.6175 182.084 49.6175C182.616 49.6175 182.896 49.5335 183.148 49.2255C183.764 48.5255 184.156 45.5295 184.436 37.2695V36.8775Z" fill="#F7F7F7"/>
</g>
<defs>
<filter id="filter0_d_1791_89003" x="0" y="0.281494" width="203" height="78" filterUnits="userSpaceOnUse" color-interpolation-filters="sRGB">
<feFlood flood-opacity="0" result="BackgroundImageFix"/>
<feColorMatrix in="SourceAlpha" type="matrix" values="0 0 0 0 0 0 0 0 0 0 0 0 0 0 0 0 0 0 127 0" result="hardAlpha"/>
<feOffset dy="1"/>
<feGaussianBlur stdDeviation="0.5"/>
<feComposite in2="hardAlpha" operator="out"/>
<feColorMatrix type="matrix" values="0 0 0 0 1 0 0 0 0 1 0 0 0 0 1 0 0 0 0.25 0"/>
<feBlend mode="normal" in2="BackgroundImageFix" result="effect1_dropShadow_1791_89003"/>
<feBlend mode="normal" in="SourceGraphic" in2="effect1_dropShadow_1791_89003" result="shape"/>
</filter>
<clipPath id="clip0_1791_89003">
<rect width="60" height="60" fill="white" transform="translate(13 8.28149)"/>
</clipPath>
</defs>
</svg>
