<svg width="315" height="315" viewBox="0 0 315 315" fill="none" xmlns="http://www.w3.org/2000/svg">
<path d="M175.863 37.3747C200.99 32.6878 226.277 44.7137 238.499 67.1625L277.016 137.908C289.238 160.357 285.615 188.122 268.042 206.683L212.661 265.176C195.088 283.737 167.562 288.872 144.479 277.894L71.735 243.299C48.652 232.322 35.2628 207.729 38.5701 182.384L48.9925 102.51C52.2997 77.1648 71.5511 56.8315 96.6781 52.1446L175.863 37.3747Z" fill="#8C8C8C"/>
<path d="M169.884 47.9239C181.654 43.7584 194.774 47.3188 202.824 56.863L268.772 135.051C277.423 145.307 278.211 160.061 270.703 171.181L216.099 252.053C208.917 262.689 195.765 267.579 183.379 264.218L81.8408 236.664C69.4547 233.303 60.5786 222.435 59.759 209.627L53.5271 112.246C52.6702 98.8556 60.8086 86.5247 73.4574 82.0484L169.884 47.9239Z" fill="#F7F7F7"/>
</svg>
