<svg width="119" height="143" viewBox="0 0 119 143" fill="none" xmlns="http://www.w3.org/2000/svg">
<mask id="path-1-inside-1_297_34625" fill="white">
<path fill-rule="evenodd" clip-rule="evenodd" d="M54.1657 40.6539L46.7615 43.1313L73.8314 124.035L73.9117 124.275L73.9158 124.274C74.9098 126.941 77.2496 128.548 79.2357 127.883C81.2218 127.219 82.1235 124.528 81.3119 121.799L81.316 121.798L81.2373 121.563C81.2368 121.561 81.2362 121.559 81.2356 121.557C81.2351 121.556 81.2345 121.554 81.2339 121.552L54.1657 40.6539Z"/>
</mask>
<path fill-rule="evenodd" clip-rule="evenodd" d="M54.1657 40.6539L46.7615 43.1313L73.8314 124.035L73.9117 124.275L73.9158 124.274C74.9098 126.941 77.2496 128.548 79.2357 127.883C81.2218 127.219 82.1235 124.528 81.3119 121.799L81.316 121.798L81.2373 121.563C81.2368 121.561 81.2362 121.559 81.2356 121.557C81.2351 121.556 81.2345 121.554 81.2339 121.552L54.1657 40.6539Z" fill="#983910"/>
<path d="M46.7615 43.1313L46.4442 42.183L45.4958 42.5003L45.8132 43.4487L46.7615 43.1313ZM54.1657 40.6539L55.114 40.3366L54.7967 39.3883L53.8484 39.7056L54.1657 40.6539ZM73.9117 124.275L72.9634 124.592L73.2807 125.541L74.229 125.223L73.9117 124.275ZM73.9158 124.274L74.8528 123.924L74.5153 123.018L73.5985 123.325L73.9158 124.274ZM81.3119 121.799L80.9946 120.851L80.0778 121.157L80.3534 122.084L81.3119 121.799ZM81.316 121.798L81.6333 122.746L82.5816 122.429L82.2643 121.48L81.316 121.798ZM81.2373 121.563L80.2888 121.879L80.289 121.88L81.2373 121.563ZM81.2339 121.552L80.2856 121.87L80.2859 121.87L81.2339 121.552ZM47.0788 44.0797L54.483 41.6023L53.8484 39.7056L46.4442 42.183L47.0788 44.0797ZM74.7797 123.718L47.7098 42.814L45.8132 43.4487L72.8831 124.352L74.7797 123.718ZM74.8601 123.958L74.7797 123.718L72.8831 124.352L72.9634 124.592L74.8601 123.958ZM73.5985 123.325L73.5944 123.327L74.229 125.223L74.2331 125.222L73.5985 123.325ZM78.9184 126.935C78.2918 127.145 77.5337 127.024 76.7666 126.502C75.9992 125.979 75.286 125.087 74.8528 123.924L72.9787 124.623C73.5396 126.128 74.4933 127.373 75.6408 128.155C76.7886 128.936 78.1936 129.287 79.553 128.832L78.9184 126.935ZM80.3534 122.084C80.707 123.273 80.6743 124.415 80.376 125.294C80.0777 126.173 79.545 126.725 78.9184 126.935L79.553 128.832C80.9124 128.377 81.8236 127.252 82.2699 125.937C82.716 124.622 82.7284 123.053 82.2704 121.514L80.3534 122.084ZM80.9986 120.849L80.9946 120.851L81.6292 122.747L81.6333 122.746L80.9986 120.849ZM80.289 121.88L80.3676 122.115L82.2643 121.48L82.1857 121.245L80.289 121.88ZM80.2873 121.875C80.2878 121.876 80.2883 121.878 80.2888 121.879L82.1859 121.246C82.1852 121.244 82.1846 121.242 82.184 121.24L80.2873 121.875ZM80.2859 121.87C80.2863 121.872 80.2868 121.873 80.2873 121.875L82.184 121.24C82.1833 121.238 82.1827 121.236 82.182 121.234L80.2859 121.87ZM53.2174 40.9712L80.2856 121.87L82.1823 121.235L55.114 40.3366L53.2174 40.9712Z" fill="#F7F7F7" mask="url(#path-1-inside-1_297_34625)"/>
<mask id="path-3-inside-2_297_34625" fill="white">
<path fill-rule="evenodd" clip-rule="evenodd" d="M54.1657 40.6539L46.7615 43.1313L73.8314 124.035L73.9117 124.275L73.9158 124.274C74.9098 126.941 77.2496 128.548 79.2357 127.883C81.2218 127.219 82.1235 124.528 81.3119 121.799L81.316 121.798L81.2373 121.563C81.2368 121.561 81.2362 121.559 81.2356 121.557C81.2351 121.556 81.2345 121.554 81.2339 121.552L54.1657 40.6539Z"/>
</mask>
<path fill-rule="evenodd" clip-rule="evenodd" d="M54.1657 40.6539L46.7615 43.1313L73.8314 124.035L73.9117 124.275L73.9158 124.274C74.9098 126.941 77.2496 128.548 79.2357 127.883C81.2218 127.219 82.1235 124.528 81.3119 121.799L81.316 121.798L81.2373 121.563C81.2368 121.561 81.2362 121.559 81.2356 121.557C81.2351 121.556 81.2345 121.554 81.2339 121.552L54.1657 40.6539Z" fill="#983910"/>
<path d="M46.7615 43.1313L46.4442 42.183L45.4958 42.5003L45.8132 43.4487L46.7615 43.1313ZM54.1657 40.6539L55.114 40.3366L54.7967 39.3883L53.8484 39.7056L54.1657 40.6539ZM73.9117 124.275L72.9634 124.592L73.2807 125.541L74.229 125.223L73.9117 124.275ZM73.9158 124.274L74.8528 123.924L74.5153 123.018L73.5985 123.325L73.9158 124.274ZM81.3119 121.799L80.9946 120.851L80.0778 121.157L80.3534 122.084L81.3119 121.799ZM81.316 121.798L81.6333 122.746L82.5816 122.429L82.2643 121.48L81.316 121.798ZM81.2373 121.563L80.2888 121.879L80.289 121.88L81.2373 121.563ZM81.2339 121.552L80.2856 121.87L80.2859 121.87L81.2339 121.552ZM47.0788 44.0797L54.483 41.6023L53.8484 39.7056L46.4442 42.183L47.0788 44.0797ZM74.7797 123.718L47.7098 42.814L45.8132 43.4487L72.8831 124.352L74.7797 123.718ZM74.8601 123.958L74.7797 123.718L72.8831 124.352L72.9634 124.592L74.8601 123.958ZM73.5985 123.325L73.5944 123.327L74.229 125.223L74.2331 125.222L73.5985 123.325ZM78.9184 126.935C78.2918 127.145 77.5337 127.024 76.7666 126.502C75.9992 125.979 75.286 125.087 74.8528 123.924L72.9787 124.623C73.5396 126.128 74.4933 127.373 75.6408 128.155C76.7886 128.936 78.1936 129.287 79.553 128.832L78.9184 126.935ZM80.3534 122.084C80.707 123.273 80.6743 124.415 80.376 125.294C80.0777 126.173 79.545 126.725 78.9184 126.935L79.553 128.832C80.9124 128.377 81.8236 127.252 82.2699 125.937C82.716 124.622 82.7284 123.053 82.2704 121.514L80.3534 122.084ZM80.9986 120.849L80.9946 120.851L81.6292 122.747L81.6333 122.746L80.9986 120.849ZM80.289 121.88L80.3676 122.115L82.2643 121.48L82.1857 121.245L80.289 121.88ZM80.2873 121.875C80.2878 121.876 80.2883 121.878 80.2888 121.879L82.1859 121.246C82.1852 121.244 82.1846 121.242 82.184 121.24L80.2873 121.875ZM80.2859 121.87C80.2863 121.872 80.2868 121.873 80.2873 121.875L82.184 121.24C82.1833 121.238 82.1827 121.236 82.182 121.234L80.2859 121.87ZM53.2174 40.9712L80.2856 121.87L82.1823 121.235L55.114 40.3366L53.2174 40.9712Z" fill="#F7F7F7" mask="url(#path-3-inside-2_297_34625)"/>
<path fill-rule="evenodd" clip-rule="evenodd" d="M54.2359 40.8634L46.8316 43.3408L52.2544 59.5478L52.5011 60.2852L52.5397 60.2723C53.6229 62.6454 55.7963 64.0194 57.6587 63.3963C59.5211 62.7732 60.43 60.3678 59.8668 57.8207L59.9054 57.8078L59.6603 57.0755C59.6598 57.0738 59.6592 57.0721 59.6586 57.0704C59.6581 57.0687 59.6575 57.067 59.6569 57.0653L54.2359 40.8634Z" fill="#FEE718"/>
<ellipse cx="50.3566" cy="41.5726" rx="3.90385" ry="4.46693" transform="rotate(-18.5 50.3566 41.5726)" fill="#983910"/>
<rect width="4.20703" height="18.1785" rx="2.10351" transform="matrix(-0.36806 0.929802 -0.929396 -0.369084 27.5459 36.7114)" fill="#FF8D4D"/>
<rect width="4.20816" height="11.2051" rx="2.10408" transform="matrix(0.559876 0.828577 -0.828227 0.560393 29.2804 63)" fill="#FEE718"/>
<rect width="4.20816" height="11.2051" rx="2.10408" transform="matrix(-0.219033 0.975717 -0.975854 -0.218425 89.911 56.2505)" fill="#FF8D4D"/>
<rect width="4.20347" height="8.36284" rx="2.10174" transform="matrix(-0.966481 0.256736 -0.256883 -0.966442 49.2108 23.082)" fill="#FEE718"/>
<rect width="4.20738" height="15.1993" rx="2.10369" transform="matrix(-0.730723 -0.682675 0.681935 -0.731413 76.0744 31.9893)" fill="#F7F7F7"/>
<path d="M45.7824 30.5022C45.9048 29.6711 46.9353 29.3522 47.5058 29.9688L57.0906 40.3298C57.3203 40.5781 57.6599 40.6934 57.9933 40.6364L71.9332 38.2512C72.7631 38.1092 73.3863 38.9938 72.9733 39.7275L66.0474 52.0303C65.881 52.3259 65.8758 52.6857 66.0336 52.9859L72.5922 65.4688C72.9832 66.2131 72.337 67.0785 71.5123 66.9148L57.6426 64.1627C57.3114 64.0969 56.9694 64.2028 56.7333 64.4441L46.8431 74.5498C46.255 75.1507 45.2329 74.8017 45.1351 73.9666L43.4958 59.9613C43.4563 59.6244 43.2488 59.3304 42.9445 59.1805L30.2798 52.9409C29.5246 52.5688 29.5391 51.4869 30.3042 51.1352L43.1543 45.229C43.4616 45.0877 43.6767 44.8007 43.726 44.4661L45.7824 30.5022Z" fill="#F9D65A"/>
<path d="M46.3421 39.2848C46.5326 36.5518 49.9854 35.4832 51.6865 37.6307L55.2067 42.075C55.938 42.9983 57.1419 43.4082 58.2847 43.123L63.7855 41.7503C66.4436 41.087 68.527 44.0406 67.0102 46.322L63.8712 51.0433C63.2191 52.0241 63.2013 53.2958 63.8257 54.2945L66.8311 59.1019C68.2833 61.4249 66.1181 64.319 63.4796 63.5814L58.0194 62.0551C56.885 61.738 55.6701 62.114 54.9132 63.0164L51.2698 67.3603C49.5092 69.4593 46.0877 68.2944 45.9739 65.5571L45.7382 59.8925C45.6892 58.7157 44.9562 57.6764 43.864 57.2354L38.6069 55.1127C36.0666 54.0869 36.1172 50.4729 38.6853 49.5187L43.9999 47.5441C45.1039 47.1339 45.8658 46.1156 45.9477 44.9406L46.3421 39.2848Z" fill="#794810"/>
<path d="M47.3683 45.1231C47.419 41.5046 52.0704 40.065 54.1563 43.0222C55.0891 44.3447 56.7674 44.9162 58.3135 44.4377C61.7705 43.3678 64.577 47.3467 62.4091 50.2443C61.4396 51.5401 61.4147 53.3129 62.3476 54.6354C64.4334 57.5926 61.5165 61.4913 58.0908 60.3249C56.5588 59.8033 54.8651 60.3275 53.8956 61.6233C51.7277 64.521 47.1184 62.9516 47.1691 59.3331C47.1918 57.7148 46.1699 56.266 44.6379 55.7444C41.2121 54.578 41.2804 49.7094 44.7374 48.6394C46.2835 48.1609 47.3456 46.7413 47.3683 45.1231Z" fill="#EACA24"/>
<path d="M48.8893 44.9734C48.9164 43.0362 51.4067 42.2654 52.5234 43.8487L54.0231 45.9748C54.5225 46.6829 55.421 46.9888 56.2487 46.7326L58.7343 45.9634C60.5851 45.3906 62.0876 47.5208 60.927 49.0721L59.3683 51.1554C58.8493 51.8492 58.836 52.7982 59.3354 53.5063L60.835 55.6324C61.9518 57.2157 60.3901 59.303 58.5561 58.6785L56.0931 57.8399C55.2729 57.5606 54.3661 57.8412 53.8471 58.535L52.2884 60.6183C51.1277 62.1696 48.66 61.3294 48.6872 59.3921L48.7236 56.7906C48.7358 55.9242 48.1887 55.1485 47.3685 54.8693L44.9055 54.0307C43.0714 53.4062 43.108 50.7996 44.9588 50.2268L47.4443 49.4576C48.272 49.2014 48.8407 48.4414 48.8528 47.575L48.8893 44.9734Z" fill="white" fill-opacity="0.9"/>
<path d="M50.6795 46.2755C50.7004 45.3148 51.9321 44.9336 52.492 45.7145L54.2201 48.1248C54.4708 48.4745 54.9173 48.6246 55.3284 48.4974L58.1749 47.6164C59.1063 47.3281 59.8575 48.4071 59.2638 49.1806L57.4992 51.4796C57.2309 51.8291 57.223 52.3131 57.4797 52.6712L59.1633 55.0192C59.7264 55.8046 58.9585 56.8527 58.0399 56.5525L55.1676 55.6138C54.7644 55.482 54.3219 55.619 54.0637 55.9554L52.2237 58.3526C51.6353 59.1192 50.4097 58.6881 50.4307 57.7219L50.4935 54.8334C50.5031 54.3928 50.2232 53.998 49.8044 53.8611L47.0496 52.9608C46.1228 52.658 46.1331 51.3433 47.0645 51.055L49.911 50.174C50.3221 50.0468 50.6057 49.6708 50.6151 49.2405L50.6795 46.2755Z" fill="#FEE718"/>
</svg>
